<svg width="169" height="147" viewBox="0 0 169 147" fill="none" xmlns="http://www.w3.org/2000/svg">
<g clip-path="url(#clip0_9440_13095)">
<rect width="169" height="147" fill="#E9E9E9"/>
<path d="M26.2597 110.257C26.6296 109.147 49.2263 99.0048 60.4785 94.0724C74.0426 92.6851 101.448 89.9106 102.558 89.9106C103.946 89.9106 139.089 107.02 146.95 113.494C153.239 118.673 157.894 140.622 159.435 150.949L11 152.337C11.3083 150.641 12.5722 145.955 15.1617 140.776C16.549 118.118 25.7973 111.644 26.2597 110.257Z" fill="#496D91"/>
<mask id="mask0_9440_13095" style="mask-type:alpha" maskUnits="userSpaceOnUse" x="11" y="89" width="149" height="64">
<path d="M26.2597 110.257C26.6296 109.147 49.2263 99.0048 60.4785 94.0724C74.0426 92.6851 101.448 89.9106 102.558 89.9106C103.946 89.9106 139.089 107.02 146.95 113.494C153.239 118.673 157.894 140.622 159.435 150.949L11 152.337C11.3083 150.641 12.5722 145.955 15.1617 140.776C16.549 118.118 25.7973 111.644 26.2597 110.257Z" fill="#496D91"/>
</mask>
<g mask="url(#mask0_9440_13095)">
<path d="M121.054 145.401C119.204 136.892 102.403 120.584 94.2341 113.494L88.2227 108.407L101.17 84.8242C111.035 85.1325 131.042 85.749 132.152 85.749C133.539 85.749 176.082 106.558 176.082 107.483C176.082 108.222 178.548 144.784 179.781 162.972L128.453 166.209C126.757 162.818 122.904 153.909 121.054 145.401Z" fill="#220548" fill-opacity="0.03" style="mix-blend-mode:luminosity"/>
</g>
<path d="M60.94 95.4599L59.5527 88.0612L101.17 80.6626C101.17 82.6664 101.355 87.2289 102.095 89.4485C107.644 95.9223 104.869 100.546 97.9332 110.257C90.997 119.968 78.5118 121.818 67.8762 116.269C59.3678 111.829 59.7069 100.546 60.94 95.4599Z" fill="#DDA989"/>
<mask id="mask1_9440_13095" style="mask-type:alpha" maskUnits="userSpaceOnUse" x="59" y="80" width="47" height="40">
<path d="M60.94 95.4599L59.5527 88.0612L101.17 80.6626C101.17 82.6664 101.355 87.2289 102.095 89.4485C107.644 95.9223 104.869 100.546 97.9332 110.257C90.997 119.968 78.5118 121.818 67.8762 116.269C59.3678 111.829 59.7069 100.546 60.94 95.4599Z" fill="#E8B290"/>
</mask>
<g mask="url(#mask1_9440_13095)">
<path d="M73.889 94.535L59.5541 88.0612C59.0917 90.065 58.5368 94.72 60.0166 97.3095C61.8662 100.546 73.889 111.182 82.6749 109.332C89.7036 107.853 99.476 96.3847 103.484 90.8357L101.172 82.5122L73.889 94.535Z" fill="#220548" fill-opacity="0.03" style="mix-blend-mode:luminosity"/>
</g>
<path d="M60.9401 22.3983C51.6918 26.0977 50.3046 45.2108 50.767 54.305L54.004 57.0793L68.8013 61.2411L102.558 61.7035C103.328 59.8538 105.147 55.7846 106.257 54.305C107.644 52.4555 107.182 46.4438 106.257 44.5941C105.332 42.7444 107.644 36.733 107.182 34.421C106.719 32.1089 99.7832 23.7854 96.5463 23.323C93.3094 22.8606 89.61 19.6237 87.298 18.2366C75.2751 15.9245 70.651 17.3118 68.8013 18.699C66.9517 20.0863 61.8651 21.4735 60.9401 22.3983Z" fill="#413219"/>
<path d="M58.8597 27.0222C58.8597 26.8945 58.9633 26.791 59.091 26.791C59.2186 26.791 59.3222 26.8945 59.3222 27.0222C59.3222 27.2362 59.2605 27.476 59.1641 27.7285C59.0666 27.9837 58.9275 28.2672 58.7586 28.572C58.421 29.1812 57.9533 29.8969 57.4337 30.6764C56.3897 32.2422 55.128 34.0776 54.2112 35.9111C53.8559 36.6216 53.5795 37.6219 53.3695 38.7885C53.16 39.9517 53.0189 41.2661 52.9287 42.598C52.7709 44.9291 52.7688 47.3025 52.8222 48.9906L52.8483 49.6697L52.8456 49.7167C52.829 49.823 52.7387 49.9067 52.6271 49.9118C52.5157 49.9167 52.4195 49.8416 52.3932 49.7375L52.3859 49.6914L52.3597 49.0059C52.3059 47.3049 52.3082 44.916 52.4672 42.5673C52.5581 41.225 52.7008 39.8918 52.9143 38.7063C53.1271 37.5244 53.4131 36.4743 53.7976 35.7052C54.7304 33.8395 56.012 31.9752 57.0489 30.4199C57.5697 29.6388 58.0269 28.9382 58.354 28.3481C58.5173 28.0533 58.6456 27.7911 58.7324 27.5641C58.8202 27.3344 58.8597 27.155 58.8597 27.0222Z" fill="black" fill-opacity="0.2"/>
<path d="M73.3871 21.7072C75.2492 21.3969 78.2708 21.0953 81.2942 21.1961C84.3049 21.2964 87.3709 21.797 89.2799 23.1333C92.9444 25.6984 96.2896 26.3287 97.4706 26.3287C97.5983 26.3287 97.7018 26.4322 97.7018 26.5599C97.7018 26.6715 97.6228 26.7649 97.5176 26.7866L97.4706 26.7911L97.2051 26.783C95.755 26.7004 92.5153 25.9633 89.0144 23.5126C87.2241 22.2595 84.2785 21.7585 81.2779 21.6585C78.2902 21.5589 75.3001 21.8571 73.4629 22.1633C73.337 22.1843 73.2175 22.0996 73.1965 21.9737C73.1756 21.8477 73.2612 21.7282 73.3871 21.7072Z" fill="black" fill-opacity="0.4"/>
<path d="M54.9287 40.895C55.2986 37.5656 60.4774 27.4851 65.1018 26.0977C74.3499 24.7102 82.211 23.3229 90.5344 26.0977C101.17 32.5715 101.17 41.8198 101.17 45.5191C101.17 49.2184 103.482 68.1775 103.482 74.1889C101.17 86.2117 100.245 86.2117 88.6848 94.9976C77.1244 103.783 69.2633 97.7721 68.8009 97.3097C66.4888 96.3848 66.489 94.0728 59.5528 88.0614C52.6437 82.0734 53.5343 67.827 53.9984 60.4035L54.0038 60.3164C54.4662 52.9178 54.4662 45.0567 54.9287 40.895Z" fill="#E8B290"/>
<mask id="mask2_9440_13095" style="mask-type:alpha" maskUnits="userSpaceOnUse" x="53" y="24" width="51" height="76">
<path d="M54.9287 40.895C55.2986 37.5656 60.4774 27.4851 65.1018 26.0977C74.3499 24.7102 82.211 23.3229 90.5344 26.0977C101.17 32.5715 101.17 41.8198 101.17 45.5191C101.17 49.2184 103.482 68.1775 103.482 74.1889C101.17 86.2117 100.245 86.2117 88.6848 94.9976C77.1244 103.783 69.2633 97.7721 68.8009 97.3097C66.4888 96.3848 66.489 94.0728 59.5528 88.0614C52.6437 82.0734 53.5343 67.827 53.9984 60.4035L54.0038 60.3164C54.4662 52.9178 54.4662 45.0567 54.9287 40.895Z" fill="#E8B290"/>
</mask>
<g mask="url(#mask2_9440_13095)">
<path d="M87.76 51.5302C89.6097 43.0217 82.3652 29.7966 78.5117 24.2477L86.3728 20.5483L103.02 30.7215L104.869 80.1999C102.866 83.1286 96.0835 93.7025 90.5345 95.9221C83.5983 98.6966 85.448 62.1657 87.76 51.5302Z" fill="#220548" fill-opacity="0.02" style="mix-blend-mode:luminosity"/>
</g>
<path d="M106.72 54.3047C105.24 53.5648 103.328 58.9288 102.558 61.7033C101.633 66.1734 100.431 75.2986 103.02 76.0384C106.257 76.9633 106.72 74.6512 107.182 72.8015C107.644 70.9519 108.107 66.7901 108.569 64.9405C109.956 56.617 108.569 55.2295 106.72 54.3047Z" fill="#E8B290"/>
<mask id="mask3_9440_13095" style="mask-type:alpha" maskUnits="userSpaceOnUse" x="101" y="54" width="9" height="23">
<path d="M106.72 54.3047C105.24 53.5648 103.328 58.9288 102.558 61.7033C101.633 66.1734 100.431 75.2986 103.02 76.0384C106.257 76.9633 106.72 74.6512 107.182 72.8015C107.644 70.9519 108.107 66.7901 108.569 64.9405C109.956 56.617 108.569 55.2295 106.72 54.3047Z" fill="#E8B290"/>
</mask>
<g mask="url(#mask3_9440_13095)">
<path d="M109.03 58.4663C106.811 58.0964 103.79 70.4893 102.557 76.5007V61.7032L103.481 53.8423L108.106 52.4551C109.339 54.613 111.25 58.8362 109.03 58.4663Z" fill="#220548" fill-opacity="0.03" style="mix-blend-mode:luminosity"/>
</g>
<path d="M50.3043 54.3049C51.0441 53.1951 53.3872 56.1548 54.0038 57.5421C55.5453 63.5534 58.0733 75.6686 55.8537 76.0385C53.0792 76.5009 50.7672 73.7264 51.2293 72.8016C51.6914 71.8768 50.7669 67.2526 49.8421 63.0909C48.9172 58.9291 49.3794 55.6921 50.3043 54.3049Z" fill="#E8B290"/>
<mask id="mask4_9440_13095" style="mask-type:alpha" maskUnits="userSpaceOnUse" x="49" y="54" width="8" height="23">
<path d="M50.3043 54.3049C51.0441 53.1951 53.3872 56.1548 54.0038 57.5421C55.5453 63.5534 58.0733 75.6686 55.8537 76.0385C53.0792 76.5009 50.7672 73.7264 51.2293 72.8016C51.6914 71.8768 50.7669 67.2526 49.8421 63.0909C48.9172 58.9291 49.3794 55.6921 50.3043 54.3049Z" fill="#E8B290"/>
</mask>
<g mask="url(#mask4_9440_13095)">
<path d="M54.0046 76.0383V57.5417L52.6173 53.8423L48.918 51.9927C48.3015 54.7672 47.0684 60.4086 47.0684 60.7786C47.0684 61.241 50.3053 59.3913 51.6925 60.3162C52.8023 61.056 53.6963 71.1059 54.0046 76.0383Z" fill="#220548" fill-opacity="0.03" style="mix-blend-mode:luminosity"/>
</g>
<path d="M102.419 35.1606C102.508 35.0935 102.631 35.1009 102.711 35.1723L102.743 35.2066L102.818 35.3177C102.988 35.5968 103.132 36.0171 103.258 36.518C103.406 37.1008 103.537 37.8271 103.653 38.644C103.886 40.2785 104.06 42.294 104.176 44.2915C104.292 46.2895 104.349 48.2739 104.349 49.8468C104.349 50.633 104.335 51.3185 104.306 51.8527C104.278 52.3745 104.234 52.7825 104.164 52.9906C104.124 53.1118 103.993 53.1773 103.872 53.137C103.751 53.0966 103.685 52.9655 103.725 52.8443C103.772 52.7057 103.814 52.3623 103.844 51.8274C103.872 51.3048 103.887 50.6284 103.887 49.8468C103.887 48.2839 103.829 46.3088 103.714 44.3185C103.598 42.3277 103.426 40.3259 103.196 38.709C103.081 37.9004 102.952 37.1923 102.811 36.6318C102.684 36.1324 102.553 35.7746 102.427 35.5652L102.372 35.4848L102.348 35.4441C102.302 35.347 102.329 35.2275 102.419 35.1606Z" fill="black" fill-opacity="0.4"/>
</g>
<defs>
<clipPath id="clip0_9440_13095">
<rect width="169" height="147" fill="white"/>
</clipPath>
</defs>
</svg>
