<svg width="169" height="147" viewBox="0 0 169 147" fill="none" xmlns="http://www.w3.org/2000/svg">
<g clip-path="url(#clip0_9440_13094)">
<rect width="169" height="147" fill="#E9E9E9"/>
<path d="M67.4343 24.6622C78.3146 12.8752 86.8898 13.3293 89.5343 15.0293L88.4009 24.0962C82.3563 42.9856 69.8138 80.6505 70.2671 80.1972C70.7205 79.7438 69.7008 104.564 69.1344 117.031C60.2564 110.609 43.6337 97.4243 48.1672 96.0643C53.834 94.3642 54.4007 82.4639 56.1007 59.7966C57.8007 37.1294 65.7343 26.3624 67.4343 24.6622Z" fill="#53300E"/>
<path d="M35.7005 101.165L70.268 86.4313L71.4014 79.0645H103.702L106.536 93.2315C107.858 93.4204 111.636 93.9115 116.169 94.3648C148.47 103.432 146.203 113.065 149.037 122.699C151.303 130.406 152.248 158.778 152.437 172H17C18.1334 163.311 20.6268 144.006 21.5334 136.299C23.8002 110.912 31.9226 102.298 35.7005 101.165Z" fill="#4E4A42"/>
<mask id="mask0_9440_13094" style="mask-type:alpha" maskUnits="userSpaceOnUse" x="17" y="79" width="136" height="93">
<path d="M35.7005 101.165L70.268 86.4313L71.4014 79.0645H103.702L106.536 93.2315C107.858 93.4204 111.636 93.9115 116.169 94.3648C148.47 103.432 146.203 113.065 149.037 122.699C151.303 130.406 152.248 158.778 152.437 172H17C18.1334 163.311 20.6268 144.006 21.5334 136.299C23.8002 110.912 31.9226 102.298 35.7005 101.165Z" fill="#6E6B66"/>
</mask>
<g mask="url(#mask0_9440_13094)">
<path d="M148.47 101.731C138.459 99.6535 118.323 95.3845 117.87 94.9312C156.971 177.1 116.736 175.4 116.736 176.533C116.736 177.667 156.404 185.6 158.671 185.6C160.484 185.6 165.849 158.022 168.304 144.232L148.47 101.731Z" fill="#220548" fill-opacity="0.06" style="mix-blend-mode:luminosity"/>
</g>
<path d="M51.0008 153.866L58.9344 106.265L65.1679 100.031H78.2015C85.5684 100.787 101.662 102.298 107.102 102.298C112.542 102.298 109.369 148.766 107.102 172H49.3008L51.0008 153.866Z" fill="#AD9164"/>
<mask id="mask1_9440_13094" style="mask-type:alpha" maskUnits="userSpaceOnUse" x="49" y="100" width="62" height="73">
<path d="M51.0008 153.867L58.9344 106.266L65.1679 100.032H78.2015C85.5684 100.788 101.662 102.299 107.102 102.299C112.542 102.299 109.369 148.767 107.102 172.001H49.3008L51.0008 153.867Z" fill="#476379"/>
</mask>
<g mask="url(#mask1_9440_13094)">
<path d="M52.7013 172.001C55.8747 123.493 62.7127 104.943 65.735 101.732C63.8461 99.4655 59.7282 95.1587 58.3681 96.0654C57.0081 96.9721 43.0678 132.711 36.2676 150.467C40.4232 177.856 49.5279 220.509 52.7013 172.001Z" fill="#220548" fill-opacity="0.06" style="mix-blend-mode:luminosity"/>
<path d="M84.4359 123.833C81.2624 121.113 87.2693 114.766 90.6694 111.932L95.7692 100.599L105.403 93.2319L120.703 111.932L115.603 172.001H92.3691C93.5025 166.712 96.2225 152.733 98.0359 139.133C100.303 122.133 88.4026 127.233 84.4359 123.833Z" fill="#220548" fill-opacity="0.06" style="mix-blend-mode:luminosity"/>
</g>
<path d="M70.2684 86.9977L69.7017 80.7642L101.436 81.3308C101.436 81.3308 102.936 91.9756 105.402 98.3313C105.982 99.8252 106.996 102.064 107.095 102.281C107.124 102.268 107.128 102.273 107.102 102.298C107.102 102.298 107.1 102.292 107.095 102.281C106.687 102.465 101.359 106.127 100.302 106.831C83.3018 118.165 73.6685 110.232 70.2684 107.965C66.8683 105.698 63.4682 97.7646 64.0349 93.2311C64.4882 89.6044 68.3795 87.5643 70.2684 86.9977Z" fill="#E3A377"/>
<mask id="mask2_9440_13094" style="mask-type:alpha" maskUnits="userSpaceOnUse" x="63" y="80" width="45" height="33">
<path d="M70.2684 86.9977L69.7017 80.7642L101.436 81.3308C101.436 81.3308 102.936 91.9756 105.402 98.3313C105.982 99.8252 106.996 102.064 107.095 102.281C107.124 102.268 107.128 102.273 107.102 102.298C107.102 102.298 107.1 102.292 107.095 102.281C106.687 102.465 101.359 106.127 100.302 106.831C83.3018 118.165 73.6685 110.232 70.2684 107.965C66.8683 105.698 63.4682 97.7646 64.0349 93.2311C64.4882 89.6044 68.3795 87.5643 70.2684 86.9977Z" fill="#CC8F66"/>
</mask>
<g mask="url(#mask2_9440_13094)">
<path d="M95.2028 71.6975C94.7494 71.2442 77.6356 77.5532 69.1354 80.7644L64.0353 84.1645C61.013 81.52 56.8951 79.2911 64.602 91.5314C74.2356 106.832 90.6693 106.832 90.6682 111.365C90.6671 115.899 105.402 105.51 107.102 102.298L100.303 81.8978C98.7917 78.6866 95.6561 72.1508 95.2028 71.6975Z" fill="#220548" fill-opacity="0.04" style="mix-blend-mode:luminosity"/>
</g>
<path d="M113.903 30.8966C106.65 12.7628 94.6361 12.7628 89.536 15.0295L87.8359 24.6629L100.303 81.8977C101.247 85.4867 103.476 93.458 104.836 96.6314C110.73 112.045 102.192 118.165 98.0362 118.165C98.414 119.488 101.096 119.865 102.003 119.865C119.683 121.679 121.081 104.754 119.57 96.0647C124.67 96.6314 129.77 98.8981 134.304 101.165C125.237 95.498 121.27 84.1644 120.703 80.7643C120.137 77.3643 120.703 58.0971 120.703 56.9637C118.437 41.6633 115.603 33.7298 113.903 30.8966Z" fill="#53300E"/>
<path d="M69.1345 34.2967C74.1213 26.5898 82.546 24.6631 86.135 24.6631C98.6019 25.7964 98.6019 28.0632 104.269 34.2967C109.936 40.5302 111.636 55.8305 110.502 60.364C107.102 78.4978 103.135 80.1978 101.435 81.3312C99.7353 82.4646 93.5018 86.998 91.2351 88.1314C82.1682 93.2315 76.5014 88.1314 76.5014 87.5647C76.5014 86.998 73.1013 83.5979 71.4012 81.8979C64.0344 76.7978 64.6011 71.1309 64.0344 68.8642C63.4677 66.5975 63.4677 57.5306 64.0344 55.2639C64.6011 52.9971 64.6011 45.6303 65.1677 44.4969C67.4345 40.5302 68.5678 35.43 69.1345 34.2967Z" fill="#E3A377"/>
<path d="M114.47 51.8638C113.11 50.5038 111.259 53.5639 110.503 55.2639L107.67 69.9974C108.425 69.8085 110.163 69.204 111.07 68.2973C112.203 68.2973 112.77 62.0638 113.903 59.2304L113.904 59.2301C115.037 56.3968 116.17 53.5638 114.47 51.8638Z" fill="#E3A377"/>
<mask id="mask3_9440_13094" style="mask-type:alpha" maskUnits="userSpaceOnUse" x="107" y="51" width="9" height="19">
<path d="M114.47 51.8638C113.11 50.5038 111.259 53.5639 110.503 55.2639L107.67 69.9974C108.425 69.8085 110.163 69.204 111.07 68.2973C112.203 68.2973 112.77 62.0638 113.903 59.2304L113.904 59.2301C115.037 56.3968 116.17 53.5638 114.47 51.8638Z" fill="#E3A377"/>
</mask>
<g mask="url(#mask3_9440_13094)">
<path d="M108.236 69.9974L111.07 54.1303L112.77 50.1636L116.737 50.7303C116.737 52.0525 116.17 55.037 113.903 56.3971C111.636 57.7571 110.314 65.2751 109.936 68.8641L108.236 69.9974Z" fill="#220548" fill-opacity="0.04" style="mix-blend-mode:luminosity"/>
</g>
<mask id="mask4_9440_13094" style="mask-type:alpha" maskUnits="userSpaceOnUse" x="63" y="24" width="48" height="67">
<path d="M69.1345 34.2967C74.1213 26.5898 82.546 24.6631 86.135 24.6631C98.6019 25.7964 98.6019 28.0632 104.269 34.2967C109.936 40.5302 111.636 55.8305 110.502 60.364C107.102 78.4978 103.135 80.1978 101.435 81.3312C99.7353 82.4646 93.5018 86.998 91.2351 88.1314C82.1682 93.2315 76.5014 88.1314 76.5014 87.5647C76.5014 86.998 73.1013 83.5979 71.4012 81.8979C64.0344 76.7978 64.6011 71.1309 64.0344 68.8642C63.4677 66.5975 63.4677 57.5306 64.0344 55.2639C64.6011 52.9971 64.6011 45.6303 65.1677 44.4969C67.4345 40.5302 68.5678 35.43 69.1345 34.2967Z" fill="#E3A377"/>
</mask>
<g mask="url(#mask4_9440_13094)">
<path d="M72.5342 33.1635C69.7008 35.9969 65.1674 47.8972 64.6007 48.4639L62.334 41.0969C65.1674 35.0523 71.0609 22.8497 71.9676 22.3964C73.1009 21.8297 96.3349 19.563 97.4682 19.563C98.3749 19.563 108.802 29.7632 113.902 34.8634C116.169 44.8747 120.702 65.4642 120.702 67.7309C120.702 69.9976 110.502 86.0536 105.402 93.7982C101.057 92.8538 93.9548 88.0181 100.302 76.2311C108.235 61.4974 102.326 39.5597 100.868 37.1301C97.4682 31.4633 89.5347 25.7966 85.5679 26.3633C81.6011 26.93 75.3677 30.3301 72.5342 33.1635Z" fill="#220548" fill-opacity="0.04" style="mix-blend-mode:luminosity"/>
</g>
<path d="M60.6326 47.33C61.5393 44.61 64.0327 47.7078 65.1661 49.5968C64.9775 53.9413 64.2604 62.7438 62.9003 63.1972C61.2003 63.7639 60.6326 54.697 60.6326 54.1303C60.6326 53.5636 59.4993 50.7301 60.6326 47.33Z" fill="#E3A377"/>
<mask id="mask5_9440_13094" style="mask-type:alpha" maskUnits="userSpaceOnUse" x="60" y="46" width="6" height="18">
<path d="M60.6326 47.33C61.5393 44.61 64.0327 47.7078 65.1661 49.5968C64.9775 53.9413 64.2604 62.7438 62.9003 63.1972C61.2003 63.7639 60.6326 54.697 60.6326 54.1303C60.6326 53.5636 59.4993 50.7301 60.6326 47.33Z" fill="#E3A377"/>
</mask>
<g mask="url(#mask5_9440_13094)">
<path d="M63.467 62.6307L64.6004 49.0304L64.0337 45.0636L61.2003 42.7969L58.9336 49.597C59.1225 49.7859 59.8403 50.2771 61.2003 50.7304C62.5604 51.1838 62.9004 59.2306 62.9004 63.1974L63.467 62.6307Z" fill="#220548" fill-opacity="0.04" style="mix-blend-mode:luminosity"/>
</g>
<path d="M84.036 19.9533C80.0951 21.6422 76.7284 23.3251 71.6631 27.2648C69.6508 28.8299 67.7964 31.5493 66.3216 34.4988C64.8507 37.4407 63.7827 40.5607 63.3189 42.8795L62.4844 42.7135C62.9651 40.31 64.0616 37.1186 65.5613 34.1192C67.0571 31.1276 68.98 28.2747 71.1407 26.5941C76.2754 22.6004 79.7092 20.883 83.7017 19.1719L84.036 19.9533Z" fill="black" fill-opacity="0.2"/>
<path d="M59.3564 64.853C59.6406 67.6003 59.9819 71.9475 60.0814 76.0649C60.1311 78.1233 60.1208 80.131 60.0117 81.8557C59.9033 83.5681 59.6958 85.044 59.3321 86.0139C58.657 87.8141 58.2367 89.215 57.9862 90.2308C57.7331 91.2573 57.6586 91.868 57.6586 92.098H56.8086C56.8086 91.7614 56.9037 91.0688 57.1606 90.0272C57.4201 88.9747 57.8502 87.5417 58.5352 85.7151C58.8515 84.8717 59.055 83.5044 59.1628 81.8014C59.2697 80.1108 59.2808 78.1299 59.2314 76.0848C59.1325 71.9952 58.7933 67.6722 58.5109 64.9416L59.3564 64.853Z" fill="black" fill-opacity="0.2"/>
<path d="M90.6289 20.2733C92.6592 20.08 95.9168 20.1958 99.1358 21.1676C102.355 22.1397 105.585 23.9846 107.471 27.286C111.135 33.6973 113.563 43.6528 114.321 47.8205L113.484 47.9732C112.731 43.8297 110.324 33.99 106.734 27.7077C104.994 24.6623 101.989 22.9169 98.8901 21.9811C95.7909 21.0454 92.645 20.9345 90.7086 21.1189L90.6289 20.2733Z" fill="black" fill-opacity="0.2"/>
<path d="M109.156 82.2285C111.638 85.9519 114.561 92.1365 115.26 98.6114C115.961 105.102 114.424 111.929 107.923 116.805L107.414 116.125C113.607 111.481 115.093 104.991 114.415 98.7032C113.734 92.3996 110.877 86.3435 108.448 82.7L109.156 82.2285Z" fill="black" fill-opacity="0.2"/>
</g>
<defs>
<clipPath id="clip0_9440_13094">
<rect width="169" height="147" fill="white"/>
</clipPath>
</defs>
</svg>
