<svg width="169" height="147" viewBox="0 0 169 147" fill="none" xmlns="http://www.w3.org/2000/svg">
<g clip-path="url(#clip0_9440_13093)">
<rect width="169" height="147" fill="#E9E9E9"/>
<g filter="url(#filter0_f_9440_13093)">
<circle cx="87.5" cy="60.5" r="60.5" fill="#FFCE6D" fill-opacity="0.1"/>
</g>
<circle cx="87.5" cy="60.5" r="51.5" fill="#FFE1AA" fill-opacity="0.3"/>
<path d="M57.3235 92.9604H63.9194C66.2697 96.0689 71.0157 102.513 71.1977 103.423C71.3796 104.333 80.523 101.679 85.0719 100.239L104.86 102.286C107.551 107.062 112.98 116.729 113.161 117.183C113.343 117.638 98.3775 122.604 90.8718 125.03C82.57 123.059 65.648 119.003 64.3743 118.548C63.1006 118.093 57.93 107.517 55.5039 102.286L57.3235 92.9604Z" fill="#F6F6F6"/>
<mask id="mask0_9440_13093" style="mask-type:alpha" maskUnits="userSpaceOnUse" x="55" y="92" width="59" height="34">
<path d="M57.3235 92.9604H63.9194C66.2697 96.0689 71.0157 102.513 71.1977 103.423C71.3796 104.333 80.523 101.679 85.0719 100.239L104.86 102.286C107.551 107.062 112.98 116.729 113.161 117.183C113.343 117.638 98.3775 122.604 90.8718 125.03C82.57 123.059 65.648 119.003 64.3743 118.548C63.1006 118.093 57.93 107.517 55.5039 102.286L57.3235 92.9604Z" fill="#F6F6F6"/>
</mask>
<g mask="url(#mask0_9440_13093)">
<path d="M88.1434 119.799C85.3231 119.981 81.1305 113.279 79.3867 109.905L82.7984 106.38L101.563 104.446L106.794 110.928C101.752 113.809 90.9637 119.617 88.1434 119.799Z" fill="#220548" fill-opacity="0.05" style="mix-blend-mode:luminosity"/>
</g>
<path d="M52.5477 85.6821C58.0973 78.9497 62.1383 78.8587 63.4651 79.6548L65.967 76.0156L69.3787 76.9254V92.0506C68.8479 92.3538 66.9222 92.9604 63.4651 92.9604C59.1436 92.7329 58.4613 95.6897 58.9161 98.0779C59.371 100.466 64.9435 104.788 72.4492 111.497C79.9549 118.207 85.2999 119.685 86.7783 120.026C87.961 120.299 93.867 114.454 96.6722 111.497L103.837 104.446L112.139 89.6624C113.655 91.1029 116.801 94.0521 117.256 94.325C117.711 94.598 118.734 97.0165 119.189 98.1916C120.137 98.7223 122.51 100.421 124.421 102.968C126.809 106.152 129.311 107.176 133.405 109.678C136.68 111.679 140.228 117.032 141.593 119.458C145.194 124.083 153.716 134.901 158.992 141.179C165.588 149.026 166.384 168.245 166.839 168.7C167.203 169.064 168.431 171.278 169 172.339H-10C-8.67323 163.165 -5.08717 142.384 -1.35705 132.65C3.30559 120.481 12.0623 116.16 14.7916 113.544C20.8189 102.172 33.2147 99.5563 34.8069 98.7602C36.399 97.9642 40.7205 93.7564 41.5165 93.8701C42.3126 93.9839 45.7243 91.8231 46.2929 90.6859C46.8615 89.5487 49.7046 86.3644 52.5477 85.6821Z" fill="#5F372B"/>
<mask id="mask1_9440_13093" style="mask-type:alpha" maskUnits="userSpaceOnUse" x="-10" y="76" width="179" height="97">
<path d="M52.5477 85.6821C58.0973 78.9497 62.1383 78.8587 63.4651 79.6548L65.967 76.0156L69.3787 76.9254V92.0506C68.8479 92.3538 66.9222 92.9604 63.4651 92.9604C59.1436 92.7329 58.4613 95.6897 58.9161 98.0779C59.371 100.466 64.9435 104.788 72.4492 111.497C79.9549 118.207 85.2999 119.685 86.7783 120.026C87.961 120.299 93.867 114.454 96.6722 111.497L103.837 104.446L112.139 89.6624C113.655 91.1029 116.801 94.0521 117.256 94.325C117.711 94.598 118.734 97.0165 119.189 98.1916C120.137 98.7223 122.51 100.421 124.421 102.968C126.809 106.152 129.311 107.176 133.405 109.678C136.68 111.679 140.228 117.032 141.593 119.458C145.194 124.083 153.716 134.901 158.992 141.179C165.588 149.026 166.384 168.245 166.839 168.7C167.203 169.064 168.431 171.278 169 172.339H-10C-8.67323 163.165 -5.08717 142.384 -1.35705 132.65C3.30559 120.481 12.0623 116.16 14.7916 113.544C20.8189 102.172 33.2147 99.5563 34.8069 98.7602C36.399 97.9642 40.7205 93.7564 41.5165 93.8701C42.3126 93.9839 45.7243 91.8231 46.2929 90.6859C46.8615 89.5487 49.7046 86.3644 52.5477 85.6821Z" fill="#5F372B"/>
</mask>
<g mask="url(#mask1_9440_13093)">
<path d="M118.621 129.238C108.068 132.968 93.7538 124.575 87.916 119.913C91.214 111.232 98.0601 93.3471 99.0609 91.2546C100.062 89.1621 106.756 77.115 109.978 71.353C123.17 75.6366 149.599 84.4312 149.781 85.341C150.009 86.4782 183.785 153.006 184.694 158.01C185.604 163.014 166.271 185.645 165.02 184.394C164.019 183.393 148.834 176.319 141.366 172.908C138.182 156.797 129.175 125.508 118.621 129.238Z" fill="#220548" fill-opacity="0.1" style="mix-blend-mode:luminosity"/>
<path d="M36.5128 91.4819C45.0041 86.9709 62.7828 77.6077 65.9671 76.243L72.2218 72.2627L68.1278 92.7328C64.8677 94.5145 57.8927 101.762 56.0732 96.4857C54.2536 91.2089 40.0761 94.5903 33.2148 99.4425L36.5128 91.4819Z" fill="#220548" fill-opacity="0.12" style="mix-blend-mode:luminosity"/>
</g>
<path d="M61.6445 97.3955C65.4656 92.0278 66.0797 79.8822 66.4209 75.6744L68.3542 72.3765C69.4914 73.5895 71.7659 78.6995 71.7659 78.9724C71.7659 79.2453 78.1344 87.7291 81.3186 91.9368C87.0048 94.8178 96.9669 102.263 91.3262 108.995C68.8091 113.544 62.7818 99.7837 61.6445 97.3955Z" fill="#DAB798"/>
<path d="M93.7156 27.6834C72.8815 25.8638 66.1946 37.0088 73.1316 47.2439L66.877 47.6987V77.2667L81.8884 94.0977L101.562 96.1447C103.458 94.7422 107.999 90.5951 111.001 85.2273C113.845 81.9294 114.754 64.1886 114.982 62.7102C115.164 61.5275 115.209 59.6397 115.209 58.8436C115.361 57.6306 115.528 55.1135 114.982 54.7496C115.71 53.4759 115.285 51.7928 114.982 51.1104C115.058 50.6176 115.186 47.1073 114.641 40.1929C113.958 31.55 104.519 30.5265 103.609 30.1853C103.155 30.1853 102.586 31.7776 101.904 31.7776C100.448 27.5926 97.0135 27.7592 93.943 29.3892C93.7914 29.2755 92.442 28.7751 93.7156 27.6834Z" fill="#E4C0A0"/>
<mask id="mask2_9440_13093" style="mask-type:alpha" maskUnits="userSpaceOnUse" x="66" y="27" width="50" height="70">
<path d="M93.7156 27.6834C72.8815 25.8638 66.1946 37.0088 73.1316 47.2439L66.877 47.6987V77.2667L81.8884 94.0977L101.562 96.1447C103.458 94.7422 107.999 90.5951 111.001 85.2273C113.845 81.9294 114.754 64.1886 114.982 62.7102C115.164 61.5275 115.209 59.6397 115.209 58.8436C115.361 57.6306 115.528 55.1135 114.982 54.7496C115.71 53.4759 115.285 51.7928 114.982 51.1104C115.058 50.6176 115.186 47.1073 114.641 40.1929C113.958 31.55 104.519 30.5265 103.609 30.1853C103.155 30.1853 102.586 31.7776 101.904 31.7776C100.448 27.5926 97.0135 27.7592 93.943 29.3892C93.7914 29.2755 92.442 28.7751 93.7156 27.6834Z" fill="#E4C0A0"/>
</mask>
<g mask="url(#mask2_9440_13093)">
<path d="M104.648 40.7728C105.131 40.7765 105.589 40.8131 105.985 40.9056C106.328 40.9853 106.661 41.1153 106.925 41.3323L107.034 41.431L107.098 41.5101C107.226 41.7041 107.205 41.9672 107.034 42.138C106.863 42.3089 106.599 42.3307 106.405 42.2025L106.327 42.138L106.242 42.0696C106.14 42.0005 105.985 41.9331 105.758 41.8802C105.461 41.811 105.085 41.7762 104.641 41.7728C103.75 41.766 102.664 41.8825 101.54 42.0247C100.431 42.1651 99.2802 42.3321 98.3096 42.4114C97.8222 42.4513 97.3636 42.4707 96.9649 42.4525C96.5767 42.4347 96.1956 42.379 95.8926 42.2376C95.7977 42.1934 95.6096 42.1452 95.3047 42.1116C95.01 42.0792 94.6436 42.0641 94.2188 42.0657C93.3698 42.069 92.3204 42.137 91.2041 42.2425C88.9733 42.4534 86.512 42.8105 84.9278 43.0745C84.6556 43.1198 84.3981 42.9355 84.3526 42.6634C84.3072 42.391 84.4913 42.1326 84.7637 42.0872C86.3637 41.8206 88.8494 41.4611 91.1104 41.2474C92.2398 41.1406 93.3227 41.0692 94.2149 41.0657C94.6607 41.064 95.0682 41.0794 95.4141 41.1175C95.7492 41.1544 96.0692 41.2165 96.3155 41.3314C96.4389 41.389 96.6625 41.4375 97.0108 41.4534C97.3485 41.4689 97.7591 41.4527 98.2276 41.4144C99.1688 41.3374 100.278 41.1765 101.415 41.0325C102.537 40.8905 103.684 40.7654 104.648 40.7728Z" fill="#220548" fill-opacity="0.05"/>
<path d="M110.206 80.9057C108.659 81.5426 105.581 79.1241 104.974 78.2901C104.785 80.1476 106.999 86.4327 106.908 86.7056C106.817 86.9785 108.689 86.5919 110.206 86.4781L114.186 82.7253L113.845 73.6274C113.579 74.0444 111.752 80.2689 110.206 80.9057Z" fill="#220548" fill-opacity="0.05" style="mix-blend-mode:luminosity"/>
<path d="M77.5661 33.9382C78.3849 32.0277 84.8064 30.9435 87.9149 30.6403C85.3752 30.337 80.0683 29.7305 79.1585 29.7305C78.0212 29.7305 71.0841 33.9382 70.2881 34.3931C69.6512 34.757 67.2934 43.3393 66.1941 47.585L65.5117 60.0945C66.6489 67.7898 68.9234 83.2713 68.9234 83.6352C68.9234 84.0901 77.2252 83.8626 80.6369 83.1803C84.0486 82.4979 79.4995 76.4706 75.974 73.0589C72.4484 69.6472 69.2647 58.8436 72.3351 56.3417C75.0808 54.1043 76.9975 46.9026 75.974 44.5145C74.9505 42.1263 76.5426 36.3264 77.5661 33.9382Z" fill="#220548" fill-opacity="0.05" style="mix-blend-mode:luminosity"/>
<path d="M114.071 46.4474C112.888 37.5315 107.437 32.5732 104.859 31.2085H111.228L116.8 41.7847L114.867 64.3019L114.071 60.4353C114.564 59.4876 115.254 55.3633 114.071 46.4474Z" fill="#220548" fill-opacity="0.05" style="mix-blend-mode:luminosity"/>
<path d="M88.0289 82.1564C84.9584 82.9525 84.9583 87.6151 84.8446 88.07L82.5701 88.8661C81.9636 87.3498 80.7961 84.1579 80.978 83.5211C81.16 82.8842 87.4981 78.631 90.6445 76.584L91.8954 77.9487L102.358 79.5408L106.225 83.5211C106.869 86.2883 108.112 91.8911 107.93 92.164C107.748 92.437 104.594 93.1875 103.04 93.5287C103.192 92.8464 103.7 91.0496 104.519 89.321C105.542 87.1602 102.388 83.0003 101.221 82.6113C99.1738 81.929 91.0994 81.3604 88.0289 82.1564Z" fill="#220548" fill-opacity="0.05" style="mix-blend-mode:luminosity"/>
</g>
<path d="M56.3012 57.2514C58.3937 52.6115 61.343 53.9534 62.556 55.2044H64.603L67.2186 62.2552C67.4082 65.7806 67.5826 73.3773 66.7638 75.5608C65.7402 78.2902 63.6932 78.1764 61.8737 78.0627C60.0541 77.949 57.6659 72.0354 57.5522 69.7609C57.4385 67.4865 57.0973 63.6199 56.7561 63.165C55.5052 59.9808 55.9601 58.0475 56.3012 57.2514Z" fill="#E4C0A0"/>
<mask id="mask3_9440_13093" style="mask-type:alpha" maskUnits="userSpaceOnUse" x="55" y="54" width="13" height="25">
<path d="M56.3012 57.2514C58.3937 52.6115 61.343 53.9534 62.556 55.2044H64.603L67.2186 62.2552C67.4082 65.7806 67.5826 73.3773 66.7638 75.5608C65.7402 78.2902 63.6932 78.1764 61.8737 78.0627C60.0541 77.949 57.6659 72.0354 57.5522 69.7609C57.4385 67.4865 57.0973 63.6199 56.7561 63.165C55.5052 59.9808 55.9601 58.0475 56.3012 57.2514Z" fill="#E4C0A0"/>
</mask>
<g mask="url(#mask3_9440_13093)">
<path d="M61.4187 61.599C60.9638 58.7787 58.424 56.4056 57.2109 55.5717C57.6658 52.9561 65.399 51.7051 65.399 51.5914C65.399 51.4777 67.9009 57.7324 67.9009 58.1873C67.9009 58.6422 69.7205 75.9281 69.6067 75.9281C69.493 75.9281 67.2186 76.2693 65.399 75.9281C63.5794 75.5869 61.9873 65.1244 61.4187 61.599Z" fill="#220548" fill-opacity="0.03" style="mix-blend-mode:luminosity"/>
</g>
<path d="M113.275 83.0663L112.82 81.5879C111.683 85.4544 109.636 85.4545 108.726 85.227C107.817 84.9995 107.817 83.0663 107.703 82.1565C107.589 81.2468 106.452 80.6781 105.77 79.9958C105.428 78.0625 103.723 76.6978 102.244 77.039C98.7188 78.29 97.4678 76.9253 94.8522 75.7881C87.8014 74.5371 84.276 85.227 84.276 85.227C84.276 85.227 85.7544 81.133 88.1425 81.133C102.699 79.9958 104.632 83.4075 105.77 84.8859C105.861 88.798 104.594 90.1551 103.95 90.3446C103.647 90.193 102.494 89.2983 100.311 86.9329C95.0796 88.0701 94.0561 86.3643 91.3268 85.7957C88.4155 89.1619 87.4602 89.776 85.9818 88.8662C84.5034 87.9564 83.4799 83.4075 83.4799 83.4075H81.5466C81.3192 80.4507 80.4094 80.337 79.4996 79.9958C69.2645 75.4469 68.6959 64.7569 67.8998 60.6628C70.4019 57.0236 71.0841 53.0435 71.0841 52.0199C74.0409 51.1102 73.586 46.2201 73.2448 45.8789C68.1273 35.6438 77.5663 31.2086 78.0212 31.2086C81.5694 32.1184 89.5072 30.2989 93.0326 29.2753L90.8719 31.4361C98.696 27.524 101.486 30.0335 101.903 31.7773C102.434 31.5877 103.677 31.2086 104.405 31.2086C112.047 32.8462 114.109 37.198 114.185 39.1692C114.413 40.496 114.867 44.4233 114.867 49.518C116.46 47.2436 116.232 39.3967 116.118 38.4869C116.005 37.5771 106.907 28.593 105.542 27.6832C103.723 23.0206 99.856 22.9068 98.9462 22.4519C95.762 20.2912 94.8522 21.0873 93.6012 21.4284C92.3503 21.7696 89.8484 22.9068 88.7112 22.9068C80.978 23.3617 80.5231 24.9539 79.3859 25.5225C76.0879 26.2048 73.2448 27.342 72.2213 28.2518C71.1978 30.5263 69.0371 31.7772 67.5587 32.8007C59.7118 39.8516 60.9626 46.3338 60.9626 48.0396C59.4842 50.9964 59.9391 52.1337 59.9391 54.0669C60.9398 53.703 62.024 54.5218 62.441 54.9767L62.6684 61.5726L63.5782 58.1609L63.9194 61.5726L64.7154 60.6628L64.6017 70.2156C64.7154 70.443 65.0339 71.0344 65.3978 71.5802C65.3978 73.741 65.7389 73.741 66.6487 75.3331C64.5562 88.525 70.0225 97.2058 73.0172 99.8973C73.8133 100.314 75.7238 101.239 76.9975 101.603C79.8179 104.241 82.1909 102.702 83.0249 101.603V103.65C83.0249 104.332 84.7307 106.266 85.8679 107.403C87.0052 108.54 89.7345 108.199 90.4169 108.199C91.9635 112.657 97.0507 111.649 99.401 110.587C100.083 110.511 101.516 110.11 101.789 109.109C102.062 108.108 102.585 107.934 102.813 107.972C104.064 108.047 106.702 107.608 107.248 105.242C107.93 102.285 109.295 101.376 109.977 100.466C110.523 99.7381 110.508 98.2672 110.432 97.6228V95.2346C114.071 91.0269 112.252 86.5917 112.252 85.227C113.07 84.3172 113.275 83.4074 113.275 83.0663Z" fill="#E7E7E7"/>
<mask id="mask4_9440_13093" style="mask-type:alpha" maskUnits="userSpaceOnUse" x="59" y="21" width="58" height="91">
<path d="M113.275 83.0663L112.82 81.5879C111.683 85.4544 109.636 85.4545 108.726 85.227C107.817 84.9995 107.817 83.0663 107.703 82.1565C107.589 81.2468 106.452 80.6781 105.77 79.9958C105.428 78.0625 103.723 76.6978 102.244 77.039C98.7188 78.29 97.4678 76.9253 94.8522 75.7881C87.8014 74.5371 84.276 85.227 84.276 85.227C84.276 85.227 85.7544 81.133 88.1425 81.133C102.699 79.9958 104.632 83.4075 105.77 84.8859C105.861 88.798 104.594 90.1551 103.95 90.3446C103.647 90.193 102.494 89.2983 100.311 86.9329C95.0796 88.0701 94.0561 86.3643 91.3268 85.7957C88.4155 89.1619 87.4602 89.776 85.9818 88.8662C84.5034 87.9564 83.4799 83.4075 83.4799 83.4075H81.5466C81.3192 80.4507 80.4094 80.337 79.4996 79.9958C69.2645 75.4469 68.6959 64.7569 67.8998 60.6628C70.4019 57.0236 71.0841 53.0435 71.0841 52.0199C74.0409 51.1102 73.586 46.2201 73.2448 45.8789C68.1273 35.6438 77.5663 31.2086 78.0212 31.2086C81.5694 32.1184 89.5072 30.2989 93.0326 29.2753L90.8719 31.4361C98.696 27.524 101.486 30.0335 101.903 31.7773C102.434 31.5877 103.677 31.2086 104.405 31.2086C112.047 32.8462 114.109 37.198 114.185 39.1692C114.413 40.496 114.867 44.4233 114.867 49.518C116.46 47.2436 116.232 39.3967 116.118 38.4869C116.005 37.5771 106.907 28.593 105.542 27.6832C103.723 23.0206 99.856 22.9068 98.9462 22.4519C95.762 20.2912 94.8522 21.0873 93.6012 21.4284C92.3503 21.7696 89.8484 22.9068 88.7112 22.9068C80.978 23.3617 80.5231 24.9539 79.3859 25.5225C76.0879 26.2048 73.2448 27.342 72.2213 28.2518C71.1978 30.5263 69.0371 31.7772 67.5587 32.8007C59.7118 39.8516 60.9626 46.3338 60.9626 48.0396C59.4842 50.9964 59.9391 52.1336 59.9391 54.0669C60.9398 53.703 62.024 54.5218 62.441 54.9767L62.6684 61.5726L63.5782 58.1609L63.9194 61.5726L64.7154 60.6628L64.6017 70.2156C64.7154 70.443 65.0339 71.0344 65.3978 71.5802C65.3978 73.741 65.7389 73.741 66.6487 75.3331C64.5562 88.525 70.0225 97.2058 73.0172 99.8973C73.8133 100.314 75.7238 101.239 76.9975 101.603C79.8179 104.241 82.1909 102.702 83.0249 101.603V103.65C83.0249 104.332 84.7307 106.266 85.8679 107.403C87.0052 108.54 89.7345 108.199 90.4169 108.199C91.9635 112.657 97.0507 111.649 99.401 110.587C100.083 110.511 101.516 110.11 101.789 109.109C102.062 108.108 102.585 107.934 102.813 107.972C104.064 108.047 106.702 107.608 107.248 105.242C107.93 102.285 109.295 101.376 109.977 100.466C110.523 99.7381 110.508 98.2672 110.432 97.6228V95.2346C114.071 91.0269 112.252 86.5917 112.252 85.227C113.07 84.3172 113.275 83.4074 113.275 83.0663Z" fill="#E7E7E7"/>
</mask>
<g mask="url(#mask4_9440_13093)">
<path d="M103.961 97.3958C104.086 97.4018 104.183 97.5084 104.177 97.6339C104.083 99.6051 103.128 101.599 101.995 103.277C100.859 104.959 99.5259 106.35 98.6404 107.12C98.5456 107.202 98.4019 107.192 98.3195 107.098C98.2371 107.003 98.2471 106.859 98.3419 106.777C99.2002 106.03 100.506 104.669 101.618 103.023C102.732 101.373 103.635 99.462 103.723 97.6121C103.729 97.4867 103.835 97.3898 103.961 97.3958Z" fill="black" fill-opacity="0.1"/>
<path d="M64.3802 44.1235C64.4077 44.0009 64.5293 43.9239 64.6518 43.9513C64.7744 43.9788 64.8514 44.1004 64.824 44.223C64.2559 46.7602 63.0723 52.0259 62.8894 52.7575C62.8589 52.8794 62.7356 52.9535 62.6137 52.923C62.4919 52.8926 62.4178 52.7692 62.4482 52.6474C62.6293 51.9231 63.811 46.6658 64.3802 44.1235Z" fill="black" fill-opacity="0.07"/>
<path d="M76.3015 29.7074C75.1052 30.2869 73.2886 31.4005 71.7408 32.8501C70.1872 34.3051 68.9404 36.0645 68.81 37.9339C68.7259 39.138 68.7956 40.2323 68.9015 41.2348C69.0062 42.2262 69.1509 43.1591 69.208 43.9868C69.2656 44.8226 69.2391 45.5981 68.9894 46.3094C68.7374 47.0273 68.2646 47.6612 67.4628 48.2254L67.2012 47.8536C67.9347 47.3374 68.3432 46.7772 68.5603 46.1588C68.7797 45.5339 68.8101 44.831 68.754 44.0179C68.6973 43.1966 68.5577 42.3098 68.4492 41.2827C68.3419 40.2666 68.2694 39.1432 68.3559 37.9024C68.4985 35.8597 69.8484 33.9991 71.4298 32.5181C73.0169 31.0318 74.8735 29.8935 76.1033 29.2979L76.3015 29.7074Z" fill="black" fill-opacity="0.07"/>
<path d="M109.888 88.1852C110.013 88.1977 110.104 88.3092 110.091 88.4342C109.957 89.7747 109.585 91.9397 108.902 94.0926C108.221 96.2382 107.221 98.4078 105.812 99.7228C105.721 99.8085 105.577 99.8035 105.491 99.7117C105.405 99.6198 105.41 99.4758 105.502 99.3901C106.822 98.1576 107.794 96.0817 108.468 93.9551C109.141 91.8358 109.507 89.702 109.639 88.3889C109.651 88.2639 109.763 88.1727 109.888 88.1852Z" fill="black" fill-opacity="0.07"/>
</g>
<path d="M67.1968 79.4282C67.314 79.4174 67.4188 79.4977 67.4409 79.6108L67.4442 79.6339L67.4669 79.8673C67.7157 82.3194 68.4325 86.0114 69.8053 89.4007C71.2269 92.9103 73.3279 96.0362 76.284 97.1834C76.401 97.2289 76.4593 97.3607 76.4139 97.4777C76.3713 97.5875 76.2527 97.6456 76.1416 97.615L76.1196 97.6077L75.973 97.549C72.9127 96.2868 70.7942 93.0537 69.3837 89.5716C67.9914 86.1341 67.2664 82.3981 67.0142 79.9122L66.9911 79.6757L66.9902 79.6523C66.9913 79.5371 67.0796 79.439 67.1968 79.4282Z" fill="black" fill-opacity="0.1"/>
<path d="M74.5244 86.4949C74.6334 86.4505 74.757 86.4967 74.8112 86.5985L74.8209 86.6196L74.8771 86.7548C75.4775 88.1765 76.7 90.3307 78.4843 92.3195C80.2975 94.3405 82.677 96.1756 85.5575 96.9128L85.695 96.947L85.7175 96.9537C85.8261 96.992 85.8902 97.1071 85.8625 97.2216C85.8348 97.336 85.725 97.4091 85.6108 97.3935L85.588 97.389L85.4447 97.3535C82.4477 96.5865 79.9948 94.6843 78.1456 92.6231C76.3255 90.5944 75.0767 88.3966 74.4578 86.931L74.3998 86.7915L74.392 86.7695C74.3595 86.6589 74.4154 86.5394 74.5244 86.4949Z" fill="black" fill-opacity="0.1"/>
<path d="M94.3128 24.5009L94.5469 24.532C95.7576 24.6991 97.5574 25.0443 99.3059 25.5779C101.101 26.1258 102.887 26.8848 103.905 27.8837L104.001 27.9812L104.017 27.9987C104.087 28.0897 104.079 28.2215 103.994 28.3028C103.903 28.3895 103.759 28.3861 103.672 28.2953C102.761 27.3408 101.022 26.5771 99.1733 26.013C97.4516 25.4876 95.676 25.147 94.4856 24.9826L94.2555 24.9522L94.2326 24.948C94.1203 24.922 94.0436 24.8147 94.0585 24.6979C94.0733 24.5811 94.1743 24.4963 94.2895 24.4991L94.3128 24.5009Z" fill="black" fill-opacity="0.1"/>
</g>
<defs>
<filter id="filter0_f_9440_13093" x="10.3" y="-16.7" width="154.4" height="154.4" filterUnits="userSpaceOnUse" color-interpolation-filters="sRGB">
<feFlood flood-opacity="0" result="BackgroundImageFix"/>
<feBlend mode="normal" in="SourceGraphic" in2="BackgroundImageFix" result="shape"/>
<feGaussianBlur stdDeviation="8.35" result="effect1_foregroundBlur_9440_13093"/>
</filter>
<clipPath id="clip0_9440_13093">
<rect width="169" height="147" fill="white"/>
</clipPath>
</defs>
</svg>
