<svg width="169" height="147" viewBox="0 0 169 147" fill="none" xmlns="http://www.w3.org/2000/svg">
<g clip-path="url(#clip0_9440_13092)">
<rect width="169" height="147" fill="#E9E9E9"/>
<g filter="url(#filter0_f_9440_13092)">
<circle cx="82.5" cy="57.5" r="60.5" fill="#FFCE6D" fill-opacity="0.1"/>
</g>
<circle cx="82.5" cy="57.5" r="51.5" fill="#FFE1AA" fill-opacity="0.3"/>
<path d="M94.1359 23.7402L69.8087 26.5047L41.6113 79.5821L46.0344 108.332L80.3136 113.861L119.016 105.015V71.8417L94.1359 23.7402Z" fill="#200E14"/>
<path d="M93.5776 29.5994C85.7237 25.2232 77.7001 27.0467 74.67 28.5054L64.1253 33.6108C63.3981 35.1911 62.1619 40.1751 63.0345 47.4688C79.0333 38.7164 95.8805 44.0651 102.304 47.8335L104.486 37.6223C104.122 36.7715 101.432 33.9757 93.5776 29.5994Z" fill="#FCFCFC"/>
<mask id="mask0_9440_13092" style="mask-type:alpha" maskUnits="userSpaceOnUse" x="62" y="26" width="43" height="22">
<path d="M93.5776 29.5994C85.7237 25.2232 77.7001 27.0467 74.67 28.5054L64.1253 33.6108C63.3981 35.1911 62.1619 40.1751 63.0345 47.4688C79.0333 38.7164 95.8805 44.0651 102.304 47.8335L104.486 37.6223C104.122 36.7715 101.432 33.9757 93.5776 29.5994Z" fill="#FCFCFC"/>
</mask>
<g mask="url(#mask0_9440_13092)">
<path d="M85.8423 43.0916C88.6067 37.0098 84.7365 27.0578 84.1836 26.5049C87.7221 26.5049 91.7398 28.5321 93.0298 29.2693L100.217 27.6107L106.852 40.88C108.142 44.7502 108.842 51.4955 101.323 47.5147C91.9241 42.5387 91.3712 45.856 85.8423 43.0916Z" fill="#220548" fill-opacity="0.05" style="mix-blend-mode:luminosity"/>
<path d="M84.7363 39.2214C88.6066 39.0371 97.6739 40.9053 102.982 45.3285" stroke="black" stroke-opacity="0.1" stroke-width="0.5" stroke-linecap="round"/>
<path d="M64.2793 40.3281C66.1223 37.5637 74.0102 32.9185 84.1833 34.2455" stroke="black" stroke-opacity="0.1" stroke-width="0.5" stroke-linecap="round"/>
</g>
<path d="M106.307 60.9618L60.8562 57.6797C59.523 60.8403 57.0747 68.3285 57.9473 72.9964C58.82 77.6644 62.9167 84.4232 64.8559 87.2191C64.4923 88.0701 63.7651 90.0637 63.7651 91.2307C61.5834 91.2307 61.947 93.7835 62.3106 95.2422C61.947 96.7009 60.129 96.3362 59.4018 96.3362C58.82 96.3362 58.4321 97.0656 58.3109 97.4303C57.7049 97.6734 56.4202 98.2326 56.1293 98.5244C52.9295 98.5244 51.4024 99.0106 51.0388 99.2537L42.6758 113.476L51.0388 122.958L85.218 131.711L123.397 114.57C121.579 112.747 117.216 107.787 114.307 102.536C111.398 97.2844 107.034 96.9441 105.216 97.4303C105.095 97.1872 104.635 96.5551 103.762 95.9716C103.762 94.1481 103.035 93.0541 101.944 92.6894C102.671 89.4072 101.58 87.9485 100.126 86.8544C103.907 83.3535 106.065 76.157 106.671 72.9964L106.307 60.9618Z" fill="#FCFCFC"/>
<mask id="mask1_9440_13092" style="mask-type:alpha" maskUnits="userSpaceOnUse" x="42" y="57" width="82" height="75">
<path d="M106.307 60.9618L60.8562 57.6797C59.523 60.8403 57.0747 68.3285 57.9473 72.9964C58.82 77.6644 62.9167 84.4232 64.8559 87.2191C64.4923 88.0701 63.7651 90.0637 63.7651 91.2307C61.5834 91.2307 61.947 93.7835 62.3106 95.2422C61.947 96.7009 60.129 96.3362 59.4018 96.3362C58.82 96.3362 58.4321 97.0656 58.3109 97.4303C57.7049 97.6734 56.4202 98.2326 56.1293 98.5244C52.9295 98.5244 51.4024 99.0106 51.0388 99.2537L42.6758 113.476L51.0388 122.958L85.218 131.711L123.397 114.57C121.579 112.747 117.216 107.787 114.307 102.536C111.398 97.2844 107.034 96.9441 105.216 97.4303C105.095 97.1872 104.635 96.5551 103.762 95.9716C103.762 94.1481 103.035 93.0541 101.944 92.6894C102.671 89.4072 101.58 87.9485 100.126 86.8544C103.907 83.3535 106.065 76.157 106.671 72.9964L106.307 60.9618Z" fill="#FCFCFC"/>
</mask>
<g mask="url(#mask1_9440_13092)">
<path d="M104.09 95.6162C102.984 96.722 100.219 99.0441 98.0078 99.4864" stroke="black" stroke-opacity="0.1" stroke-width="0.5" stroke-linecap="round"/>
<path d="M101.878 92.8516C100.957 94.1416 97.3446 97.4958 90.2676 100.592" stroke="black" stroke-opacity="0.1" stroke-width="0.5" stroke-linecap="round"/>
<path d="M62.0684 95.0635C62.8055 96.7221 65.1645 100.15 68.703 100.592" stroke="black" stroke-opacity="0.1" stroke-width="0.5" stroke-linecap="round"/>
<path d="M86.9486 107.227C79.4293 104.573 80.1296 97.6432 81.4197 94.5102C79.9452 91.1928 76.9961 84.4476 76.9961 84.0053C76.9961 83.563 91.7398 62.074 99.1117 51.3848L112.381 54.7021L109.617 84.0053L126.756 100.592V115.52L109.617 125.472C109.248 125.472 106.742 118.616 104.088 113.308C100.77 106.674 96.3477 110.544 86.9486 107.227Z" fill="#220548" fill-opacity="0.04" style="mix-blend-mode:luminosity"/>
<path d="M64.834 87.3228C66.1241 89.1657 71.6898 94.068 74.786 94.5103" stroke="black" stroke-opacity="0.1" stroke-width="0.5" stroke-linecap="round"/>
<path d="M60.9629 87.8755C62.253 89.7185 64.8331 92.8515 68.1505 94.5102" stroke="black" stroke-opacity="0.1" stroke-width="0.5" stroke-linecap="round"/>
<path d="M58.1992 97.2749C58.9364 99.4865 62.0694 104.352 68.7041 106.121" stroke="black" stroke-opacity="0.1" stroke-width="0.5" stroke-linecap="round"/>
<path d="M100.219 86.77C100.035 87.8758 98.1181 90.972 91.9258 94.5105" stroke="black" stroke-opacity="0.1" stroke-width="0.5" stroke-linecap="round"/>
</g>
<path d="M9.94852 147.028C16.9298 127.772 36.6131 115.665 45.5821 112.018C63.3987 128.064 77.2164 126.97 80.8525 126.97C95.9786 126.678 112.123 116.637 118.304 111.653L126.667 112.383L150.665 133.17L153.938 152.498C155.029 155.051 158.81 164.022 165.21 179.485C176.263 223.247 156.241 249.018 144.848 256.433H31.4017C23.0387 249.018 5.65817 232.947 3.03997 227.988C-5.32303 173.65 5.94884 161.98 8.49408 158.698C7.76687 155.051 9.94852 148.486 9.94852 147.028Z" fill="#E3CDBD"/>
<mask id="mask2_9440_13092" style="mask-type:alpha" maskUnits="userSpaceOnUse" x="0" y="111" width="169" height="146">
<path d="M9.94852 147.028C16.9298 127.772 36.6131 115.665 45.5821 112.018C63.3987 128.064 77.2164 126.97 80.8525 126.97C95.9786 126.678 112.123 116.637 118.304 111.653L126.667 112.383L150.665 133.17L153.938 152.498C155.029 155.051 158.81 164.022 165.21 179.485C176.263 223.247 156.241 249.018 144.848 256.433H31.4017C23.0387 249.018 5.65817 232.947 3.03997 227.988C-5.32303 173.65 5.94884 161.98 8.49408 158.698C7.76687 155.051 9.94852 148.486 9.94852 147.028Z" fill="#E3CDBD"/>
</mask>
<g mask="url(#mask2_9440_13092)">
<path d="M123.99 145.929C126.202 132.217 113.485 122.523 106.851 119.39L116.25 110.544L157.717 124.919L167.669 160.857L165.457 186.29C144.631 186.658 102.649 187.396 101.322 187.396C99.9948 187.396 83.445 176.338 75.3359 170.809C90.6326 168.229 121.779 159.641 123.99 145.929Z" fill="#220548" fill-opacity="0.05" style="mix-blend-mode:luminosity"/>
</g>
<path d="M69.5804 86.8547C62.0173 77.8105 60.6113 63.8796 60.8538 58.0446C60.6112 55.3703 59.7395 49.265 62.0666 47.5146C77.7745 38.1787 95.4508 43.6247 101.875 47.5147C102.602 49.5813 104.268 55.1272 104.85 59.5034C102.305 81.3845 94.669 86.8547 91.0329 91.2309C81.9427 99.6187 73.2161 90.8662 69.5804 86.8547Z" fill="#F2CAA6"/>
<mask id="mask3_9440_13092" style="mask-type:alpha" maskUnits="userSpaceOnUse" x="60" y="42" width="45" height="53">
<path d="M69.5804 86.8547C62.0173 77.8106 60.6113 63.8796 60.8537 58.0447C60.6112 55.3703 59.7395 49.265 62.0666 47.5147C77.7745 38.1787 95.4508 43.6248 101.875 47.5148C102.602 49.5813 104.268 55.1272 104.85 59.5034C102.305 81.3845 94.669 86.8547 91.0329 91.2309C81.9427 99.6187 73.2161 90.8663 69.5804 86.8547Z" fill="#E4C0A0"/>
</mask>
<g mask="url(#mask3_9440_13092)">
<path d="M81.4193 70.1834C80.977 59.5679 84.5523 47.6992 86.3953 43.0918L88.6067 41.4331L103.535 43.0918L118.463 55.2554L105.746 81.2412L91.3715 96.7221C87.5013 95.9849 79.982 94.5105 80.8666 94.5105C81.9724 94.5105 81.9722 83.4527 81.4193 70.1834Z" fill="#220548" fill-opacity="0.03" style="mix-blend-mode:luminosity"/>
</g>
<path d="M57.9471 79.5607C59.6924 53.0116 65.4616 39.0807 68.1281 35.4338C76.491 21.9405 87.763 25.5873 89.5811 26.6814C101.217 33.2457 104.853 61.6911 106.307 71.5376C113.216 114.57 122.669 116.394 128.851 120.405C151.031 132.075 152.122 143.38 153.94 149.945C155.394 138.567 149.94 127.456 147.031 123.323C145.819 120.405 143.104 114.279 141.941 113.112C128.851 90.5012 119.397 50.0212 117.579 46.3744C104.853 12.0942 81.9453 15.7409 79.0364 16.4702C55.7655 19.3877 48.8569 41.9982 41.9484 66.0673C36.4215 85.3227 30.1917 98.8889 27.7676 103.265C24.98 108.128 19.041 118.728 17.5865 122.229C7.76909 136.087 10.3143 137.91 10.3143 147.392C14.6776 129.887 29.222 122.958 34.6761 120.405C52.8565 114.57 56.8562 84.6662 57.9471 79.5607Z" fill="#3D2E33"/>
<mask id="mask4_9440_13092" style="mask-type:alpha" maskUnits="userSpaceOnUse" x="10" y="16" width="145" height="134">
<path d="M57.9471 79.5606C59.6924 53.0116 65.4616 39.0807 68.1281 35.4338C76.491 21.9405 87.763 25.5873 89.5811 26.6814C101.217 33.2457 104.853 61.6911 106.307 71.5376C113.216 114.57 122.669 116.394 128.851 120.405C151.031 132.075 152.122 143.38 153.94 149.945C155.394 138.567 149.94 127.456 147.031 123.323C145.819 120.405 143.104 114.279 141.941 113.112C128.851 90.5012 119.397 50.0212 117.579 46.3743C104.853 12.0942 81.9453 15.7409 79.0364 16.4702C55.7655 19.3877 48.8569 41.9981 41.9484 66.0673C36.4215 85.3227 30.1917 98.8889 27.7676 103.265C24.98 108.128 19.041 118.728 17.5865 122.229C7.76909 136.087 10.3143 137.91 10.3143 147.392C14.6776 129.887 29.222 122.958 34.6761 120.405C52.8565 114.57 56.8562 84.6662 57.9471 79.5606Z" fill="#352727"/>
</mask>
<g mask="url(#mask4_9440_13092)">
<path d="M83.6311 18.7646C76.075 18.9489 59.7463 24.5147 54.8809 45.3034" stroke="#603C35" stroke-opacity="0.5" stroke-width="0.5" stroke-linecap="round" style="mix-blend-mode:luminosity"/>
<path d="M55.9864 66.3132C60.8518 40.6591 69.4401 30.9282 73.126 29.2695L71.4677 38.1158L66.4917 57.4669L58.198 100.039C49.536 110.36 34.092 128.237 41.6113 117.179C51.0104 103.357 49.9046 98.3808 55.9864 66.3132Z" fill="#220548" fill-opacity="0.15" style="mix-blend-mode:luminosity"/>
<path d="M104.642 28.7163C99.3338 20.7547 90.635 16.5527 87.502 15.9998L91.9251 14.894L117.358 23.7403L128.416 71.2888C126.02 69.2615 120.675 63.6589 118.464 57.4666C115.699 49.7261 111.276 38.6683 104.642 28.7163Z" fill="#220548" fill-opacity="0.15" style="mix-blend-mode:luminosity"/>
<path d="M78.6559 27.0576C73.4956 28.1634 66.6029 30.9278 58.199 57.4666C56.7246 65.3913 53.4441 81.7937 52.1172 84.0053" stroke="#603C35" stroke-opacity="0.5" stroke-width="0.5" stroke-linecap="round" style="mix-blend-mode:luminosity"/>
<path d="M13.9688 138.188C13.9688 135.977 17.2861 129.342 31.6612 102.251C43.1613 80.5773 44.9306 68.5243 46.0364 63.5483" stroke="#603C35" stroke-opacity="0.5" stroke-width="0.5" stroke-linecap="round" style="mix-blend-mode:luminosity"/>
<path d="M91.9258 22.6348C96.5332 23.1877 107.849 35.4618 116.253 80.1353" stroke="#603C35" stroke-opacity="0.5" stroke-width="0.5" stroke-linecap="round" style="mix-blend-mode:luminosity"/>
<path d="M146.661 133.213C145.555 129.895 135.051 119.943 128.969 97.8276" stroke="#603C35" stroke-opacity="0.5" stroke-width="0.5" stroke-linecap="round" style="mix-blend-mode:luminosity"/>
</g>
</g>
<defs>
<filter id="filter0_f_9440_13092" x="5.3" y="-19.7" width="154.4" height="154.4" filterUnits="userSpaceOnUse" color-interpolation-filters="sRGB">
<feFlood flood-opacity="0" result="BackgroundImageFix"/>
<feBlend mode="normal" in="SourceGraphic" in2="BackgroundImageFix" result="shape"/>
<feGaussianBlur stdDeviation="8.35" result="effect1_foregroundBlur_9440_13092"/>
</filter>
<clipPath id="clip0_9440_13092">
<rect width="169" height="147" fill="white"/>
</clipPath>
</defs>
</svg>
